<svg width="171" height="33" viewBox="0 0 171 33" fill="none" xmlns="http://www.w3.org/2000/svg">
<path d="M21.1758 10.7604C24.3306 9.61779 29.3156 7.29213 30.074 3.66208C27.0809 2.52958 21.287 7.74715 21.1758 10.7604Z" fill="url(#paint0_linear_2554_19110)"/>
<path d="M20.6568 4.83536C18.2806 5.50273 13.7709 5.75552 11.607 5.28027C12.3654 4.5219 13.0226 3.66242 13.5585 2.73216C9.64535 3.89499 4.40755 2.93439 4.31655 0.285156C0.393254 3.00517 -0.860581 6.22065 0.575262 9.9316C3.06271 15.1289 8.93753 13.8852 13.1642 12.8943C14.5596 12.7224 20.5052 5.59373 20.6568 4.83536Z" fill="url(#paint1_linear_2554_19110)"/>
<path d="M20.6583 4.83536C18.282 5.50273 13.7723 5.75552 11.6084 5.28027C12.3668 4.5219 13.024 3.66242 13.5599 2.73216C9.64676 3.89499 4.40897 2.93439 4.31796 0.285156C-1.8501 9.79003 11.3455 11.145 18.0899 8.26319C19.4651 6.64533 20.5976 5.15893 20.6583 4.83536Z" fill="url(#paint2_linear_2554_19110)"/>
<path d="M18.0875 17.4846C18.9369 15.1691 19.9581 12.9142 21.1715 10.7604C23.3354 6.98882 26.3183 3.60144 30.0697 3.66211C31.4449 -3.0823 12.5868 5.77543 9.16907 22.5202C6.11538 37.4853 19.3211 31.9644 19.4829 27.394C15.4281 25.8772 19.5031 18.0913 21.8995 14.9669C20.4839 15.5634 19.1896 16.4128 18.0875 17.4846Z" fill="url(#paint3_linear_2554_19110)"/>
<path d="M21.9008 14.9668C20.4852 15.5533 19.1909 16.4128 18.0888 17.4846C18.9382 15.169 19.9594 12.9141 21.1728 10.7604C23.3367 6.98877 26.3196 3.60139 30.071 3.66206C24.6006 -1.33306 10.8893 15.6746 12.6184 26.8075C13.397 31.7925 18.0888 29.9016 19.4842 27.3939C15.4294 25.8772 19.5044 18.0913 21.9008 14.9668Z" fill="url(#paint4_linear_2554_19110)"/>
<path d="M39.3593 2.11525H35.1445V0.784273H45.016V2.11525H40.8197V14.3898H39.3593V2.11525Z" fill="#156DD6"/>
<path d="M49.5746 14.5008C48.5147 14.5008 47.689 14.3467 47.0975 14.0386C46.5183 13.7305 46.0993 13.2129 45.8405 12.4858C45.5817 11.7587 45.4523 10.742 45.4523 9.43564C45.4523 8.11698 45.5817 7.0941 45.8405 6.36699C46.1116 5.63988 46.5429 5.12844 47.1345 4.83267C47.726 4.53689 48.5455 4.38901 49.5931 4.38901C50.4927 4.38901 51.2137 4.4876 51.7559 4.68478C52.2982 4.88196 52.6987 5.22087 52.9575 5.7015C53.2163 6.16981 53.3457 6.82297 53.3457 7.661C53.3457 8.49902 53.0992 9.10905 52.6063 9.4911C52.1256 9.86081 51.4355 10.0457 50.5359 10.0457H46.9126C46.925 10.896 47.0112 11.5553 47.1714 12.0237C47.3316 12.4796 47.6274 12.8185 48.0588 13.0404C48.4901 13.2499 49.1124 13.3546 49.9258 13.3546H53.1054V14.242C52.4399 14.3282 51.8483 14.3898 51.3307 14.4268C50.8131 14.4761 50.2278 14.5008 49.5746 14.5008ZM50.4065 9.08441C50.9734 9.08441 51.3862 8.97965 51.645 8.77015C51.9038 8.56064 52.0332 8.19709 52.0332 7.67948C52.0332 6.85378 51.8483 6.28689 51.4786 5.97879C51.1212 5.65837 50.4927 5.49816 49.5931 5.49816C48.8783 5.49816 48.3299 5.60291 47.9478 5.81242C47.5658 6.02192 47.2947 6.37931 47.1345 6.88459C46.9743 7.38987 46.8941 8.12314 46.8941 9.08441H50.4065Z" fill="#156DD6"/>
<path d="M59.3909 14.5008C58.1338 14.5008 57.1602 14.1372 56.4701 13.4101C55.7923 12.6707 55.4534 11.3582 55.4534 9.47261C55.4534 8.15395 55.6074 7.12491 55.9155 6.38548C56.2359 5.64604 56.6858 5.1346 57.265 4.85115C57.8442 4.55538 58.5651 4.40749 59.4278 4.40749C60.6109 4.40749 61.7016 4.49376 62.6998 4.6663V5.53513H59.816C59.1382 5.53513 58.5898 5.64604 58.1708 5.86787C57.7641 6.0897 57.4498 6.49023 57.228 7.06945C57.0185 7.63635 56.9137 8.44973 56.9137 9.50958C56.9137 10.5201 57.0247 11.3089 57.2465 11.8758C57.4806 12.4303 57.8072 12.8185 58.2262 13.0404C58.6453 13.2499 59.1813 13.3546 59.8345 13.3546H62.8477V14.205C61.6893 14.4022 60.537 14.5008 59.3909 14.5008Z" fill="#156DD6"/>
<path d="M64.867 0.285156H66.3274V5.60907C66.8326 5.25168 67.3995 4.95591 68.0281 4.72175C68.6689 4.47528 69.3097 4.35204 69.9506 4.35204C70.9488 4.35204 71.7006 4.66013 72.2059 5.27633C72.7235 5.89252 72.9823 6.68741 72.9823 7.661V14.3898H71.5219V7.82737C71.5219 7.19885 71.337 6.68741 70.9673 6.29305C70.5976 5.88636 70.0985 5.68302 69.47 5.68302C68.8784 5.68302 68.3485 5.76312 67.8802 5.92333C67.4242 6.07122 66.9066 6.31153 66.3274 6.64428V14.3898H64.867V0.285156Z" fill="#156DD6"/>
<path d="M76.3164 0.71033H82.084C83.2301 0.71033 84.1729 1.03075 84.9123 1.67159C85.6517 2.31243 86.0215 3.55715 86.0215 5.40573C86.0215 8.60994 84.7459 10.212 82.1949 10.212C81.8005 10.212 81.2891 10.1812 80.6606 10.1196C80.0321 10.0457 79.496 9.97789 79.0523 9.91627V14.3898H76.3164V0.71033ZM81.7697 7.75343C82.2627 7.75343 82.6324 7.56857 82.8789 7.19885C83.1377 6.82914 83.2671 6.23759 83.2671 5.42421C83.2671 3.9207 82.7864 3.16894 81.8252 3.16894H79.0523V7.75343H81.7697Z" fill="#7DCD5C"/>
<path d="M89.7758 14.5008C89.0117 14.5008 88.3955 14.2789 87.9272 13.8353C87.4713 13.3793 87.2433 12.7631 87.2433 11.9867V11.0994C87.2433 10.3106 87.5144 9.68211 88.0566 9.21381C88.6112 8.7455 89.4307 8.51135 90.5152 8.51135H93.0478V7.82737C93.0478 7.49463 92.9923 7.23582 92.8814 7.05097C92.7705 6.85378 92.561 6.71206 92.2529 6.62579C91.9448 6.5272 91.4888 6.47791 90.885 6.47791H87.9087V4.88813C89.1288 4.51841 90.4536 4.33355 91.8832 4.33355C93.1895 4.33355 94.1631 4.58003 94.804 5.07298C95.4571 5.56594 95.7837 6.42245 95.7837 7.64251V14.3898H93.6209L93.1772 13.3361C93.0416 13.4717 92.8013 13.6319 92.4563 13.8168C92.1112 14.0016 91.6983 14.1618 91.2177 14.2974C90.7494 14.433 90.2688 14.5008 89.7758 14.5008ZM91.1992 12.5967C91.4827 12.5967 91.8339 12.5351 92.2529 12.4119C92.6719 12.2763 92.9369 12.1777 93.0478 12.1161V9.80535L91.3841 9.91627C90.4475 9.99021 89.9792 10.3969 89.9792 11.1363V11.543C89.9792 12.2455 90.3858 12.5967 91.1992 12.5967Z" fill="#7DCD5C"/>
<path d="M99.9394 14.5008C99.1753 14.5008 98.5591 14.2789 98.0908 13.8353C97.6348 13.3793 97.4069 12.7631 97.4069 11.9867V11.0994C97.4069 10.3106 97.678 9.68211 98.2202 9.21381C98.7748 8.7455 99.5943 8.51135 100.679 8.51135H103.211V7.82737C103.211 7.49463 103.156 7.23582 103.045 7.05097C102.934 6.85378 102.725 6.71206 102.417 6.62579C102.108 6.5272 101.652 6.47791 101.049 6.47791H98.0723V4.88813C99.2924 4.51841 100.617 4.33355 102.047 4.33355C103.353 4.33355 104.327 4.58003 104.968 5.07298C105.621 5.56594 105.947 6.42245 105.947 7.64251V14.3898H103.784L103.341 13.3361C103.205 13.4717 102.965 13.6319 102.62 13.8168C102.275 14.0016 101.862 14.1618 101.381 14.2974C100.913 14.433 100.432 14.5008 99.9394 14.5008ZM101.363 12.5967C101.646 12.5967 101.997 12.5351 102.417 12.4119C102.836 12.2763 103.1 12.1777 103.211 12.1161V9.80535L101.548 9.91627C100.611 9.99021 100.143 10.3969 100.143 11.1363V11.543C100.143 12.2455 100.549 12.5967 101.363 12.5967Z" fill="#7DCD5C"/>
<path d="M111.767 14.3898C110.99 14.3898 110.368 14.2789 109.9 14.0571C109.431 13.8353 109.092 13.4655 108.883 12.9479C108.673 12.4303 108.581 11.734 108.606 10.859L108.698 6.66276H107.145V4.90661L108.791 4.46295L109.16 1.69008H111.323V4.46295H113.652V6.66276H111.323V10.8406C111.323 11.3335 111.409 11.6786 111.582 11.8758C111.754 12.0729 111.995 12.1962 112.303 12.2455L113.56 12.3564V14.3898H111.767Z" fill="#7DCD5C"/>
<path d="M115.181 0.303642H117.916V5.47967C118.286 5.15925 118.761 4.88196 119.34 4.64781C119.931 4.41366 120.511 4.29658 121.078 4.29658C123.111 4.29658 124.128 5.47351 124.128 7.82737V14.3898H121.392V8.1786C121.392 7.72262 121.262 7.37139 121.004 7.12491C120.745 6.87843 120.4 6.75519 119.968 6.75519C119.291 6.75519 118.607 7.00167 117.916 7.49463V14.3898H115.181V0.303642Z" fill="#7DCD5C"/>
<path d="M129.779 14.5008C129.101 14.5008 128.387 14.4638 127.635 14.3898C126.895 14.3036 126.329 14.1927 125.934 14.0571V12.4488H130.334C130.741 12.4488 131.03 12.3934 131.203 12.2825C131.375 12.1715 131.461 11.9559 131.461 11.6355V11.3212C131.461 11.0624 131.375 10.8714 131.203 10.7481C131.042 10.6126 130.753 10.5448 130.334 10.5448H128.781C127.857 10.5448 127.123 10.3353 126.581 9.91627C126.039 9.48493 125.768 8.7948 125.768 7.84586V7.2728C125.768 6.28688 126.064 5.55978 126.655 5.09147C127.259 4.61084 128.294 4.37052 129.761 4.37052C130.365 4.37052 131.024 4.41982 131.739 4.51841C132.454 4.60468 132.996 4.70943 133.366 4.83267V6.44093H129.206C128.824 6.44093 128.547 6.50255 128.374 6.62579C128.202 6.74903 128.116 6.9647 128.116 7.2728V7.56857C128.116 7.87667 128.208 8.08617 128.393 8.19709C128.578 8.29568 128.886 8.34497 129.317 8.34497H130.907C131.893 8.34497 132.62 8.57296 133.088 9.02895C133.569 9.47261 133.809 10.1135 133.809 10.9515V11.8388C133.809 12.8124 133.476 13.5025 132.811 13.9092C132.145 14.3036 131.135 14.5008 129.779 14.5008Z" fill="#7DCD5C"/>
<path d="M135.508 0.303642H138.244V5.47967C138.613 5.15925 139.088 4.88196 139.667 4.64781C140.259 4.41366 140.838 4.29658 141.405 4.29658C143.438 4.29658 144.455 5.47351 144.455 7.82737V14.3898H141.719V8.1786C141.719 7.72262 141.59 7.37139 141.331 7.12491C141.072 6.87843 140.727 6.75519 140.296 6.75519C139.618 6.75519 138.934 7.00167 138.244 7.49463V14.3898H135.508V0.303642Z" fill="#7DCD5C"/>
<path d="M148.609 14.5008C147.845 14.5008 147.229 14.2789 146.761 13.8353C146.305 13.3793 146.077 12.7631 146.077 11.9867V11.0994C146.077 10.3106 146.348 9.68211 146.89 9.21381C147.445 8.7455 148.264 8.51135 149.349 8.51135H151.881V7.82737C151.881 7.49463 151.826 7.23582 151.715 7.05097C151.604 6.85378 151.394 6.71206 151.086 6.62579C150.778 6.5272 150.322 6.47791 149.718 6.47791H146.742V4.88813C147.962 4.51841 149.287 4.33355 150.716 4.33355C152.023 4.33355 152.996 4.58003 153.637 5.07298C154.29 5.56594 154.617 6.42245 154.617 7.64251V14.3898H152.454L152.01 13.3361C151.875 13.4717 151.635 13.6319 151.29 13.8168C150.944 14.0016 150.532 14.1618 150.051 14.2974C149.583 14.433 149.102 14.5008 148.609 14.5008ZM150.033 12.5967C150.316 12.5967 150.667 12.5351 151.086 12.4119C151.505 12.2763 151.77 12.1777 151.881 12.1161V9.80535L150.217 9.91627C149.281 9.99021 148.812 10.3969 148.812 11.1363V11.543C148.812 12.2455 149.219 12.5967 150.033 12.5967Z" fill="#7DCD5C"/>
<path d="M159.771 14.4268C158.723 14.4268 157.941 14.168 157.423 13.6504C156.918 13.1205 156.665 12.3009 156.665 11.1918V0.285156H159.401V10.7851C159.401 11.315 159.481 11.6971 159.642 11.9312C159.802 12.1531 160.067 12.2886 160.436 12.3379L161.194 12.4488V14.4268H159.771Z" fill="#7DCD5C"/>
<path d="M164.568 14.5008C163.803 14.5008 163.187 14.2789 162.719 13.8353C162.263 13.3793 162.035 12.7631 162.035 11.9867V11.0994C162.035 10.3106 162.306 9.68211 162.848 9.21381C163.403 8.7455 164.223 8.51135 165.307 8.51135H167.84V7.82737C167.84 7.49463 167.784 7.23582 167.673 7.05097C167.562 6.85378 167.353 6.71206 167.045 6.62579C166.737 6.5272 166.281 6.47791 165.677 6.47791H162.701V4.88813C163.921 4.51841 165.245 4.33355 166.675 4.33355C167.981 4.33355 168.955 4.58003 169.596 5.07298C170.249 5.56594 170.575 6.42245 170.575 7.64251V14.3898H168.413L167.969 13.3361C167.833 13.4717 167.593 13.6319 167.248 13.8168C166.903 14.0016 166.49 14.1618 166.009 14.2974C165.541 14.433 165.061 14.5008 164.568 14.5008ZM165.991 12.5967C166.274 12.5967 166.626 12.5351 167.045 12.4119C167.464 12.2763 167.729 12.1777 167.84 12.1161V9.80535L166.176 9.91627C165.239 9.99021 164.771 10.3969 164.771 11.1363V11.543C164.771 12.2455 165.178 12.5967 165.991 12.5967Z" fill="#7DCD5C"/>
<path d="M36.777 30.5V23.2276H37.3139L41.7163 29.5434H41.5113V23.2276H42.1458V30.5H41.609L37.187 24.1452H37.4115V30.5H36.777ZM45.7996 30.6171C45.4482 30.6171 45.1228 30.5358 44.8235 30.3731C44.5306 30.2104 44.2964 29.9826 44.1207 29.6898C43.9449 29.3904 43.8571 29.0358 43.8571 28.6258V25.3166H44.4428V28.577C44.4428 28.8828 44.5046 29.1464 44.6283 29.3677C44.7584 29.5824 44.9309 29.7484 45.1456 29.8655C45.3669 29.9826 45.6142 30.0412 45.8875 30.0412C46.1869 30.0412 46.4439 29.9729 46.6587 29.8362C46.8799 29.6995 47.0491 29.5108 47.1663 29.27C47.2834 29.0227 47.342 28.7429 47.342 28.4305V25.3166H47.9277V30.5H47.342V29.4457L47.4884 29.4946C47.3713 29.833 47.163 30.1063 46.8637 30.3145C46.5643 30.5163 46.2096 30.6171 45.7996 30.6171ZM49.6483 30.5V25.3166H50.234V26.283L50.1266 26.1951C50.2373 25.9023 50.426 25.6713 50.6928 25.5021C50.9661 25.3329 51.2883 25.2483 51.6592 25.2483H51.9911V25.834H51.5909C51.1679 25.834 50.836 25.9706 50.5952 26.2439C50.3544 26.5108 50.234 26.8719 50.234 27.3275V30.5H49.6483ZM54.9378 30.5586C54.5083 30.5586 54.1764 30.4382 53.9421 30.1974C53.7078 29.9501 53.5907 29.5922 53.5907 29.1236V25.873H52.6145V25.3166H52.9855C53.1807 25.3166 53.3304 25.258 53.4345 25.1409C53.5386 25.0237 53.5907 24.8643 53.5907 24.6626V24.1062H54.1764V25.3166H55.3087V25.873H54.1764V29.1236C54.1764 29.2668 54.1959 29.4067 54.235 29.5434C54.2805 29.68 54.3651 29.7907 54.4888 29.8753C54.6124 29.9599 54.7914 30.0022 55.0256 30.0022C55.0777 30.0022 55.1395 29.9989 55.2111 29.9924C55.2892 29.9859 55.351 29.9794 55.3966 29.9729V30.5C55.325 30.5195 55.2437 30.5325 55.1525 30.539C55.0614 30.5521 54.9899 30.5586 54.9378 30.5586ZM58.733 30.6171C58.3816 30.6171 58.0562 30.5358 57.7568 30.3731C57.464 30.2104 57.2297 29.9826 57.054 29.6898C56.8783 29.3904 56.7904 29.0358 56.7904 28.6258V25.3166H57.3761V28.577C57.3761 28.8828 57.438 29.1464 57.5616 29.3677C57.6918 29.5824 57.8642 29.7484 58.079 29.8655C58.3002 29.9826 58.5475 30.0412 58.8208 30.0412C59.1202 30.0412 59.3773 29.9729 59.592 29.8362C59.8133 29.6995 59.9825 29.5108 60.0996 29.27C60.2168 29.0227 60.2753 28.7429 60.2753 28.4305V25.3166H60.861V30.5H60.2753V29.4457L60.4217 29.4946C60.3046 29.833 60.0964 30.1063 59.797 30.3145C59.4976 30.5163 59.143 30.6171 58.733 30.6171ZM62.5816 30.5V25.3166H63.1673V26.283L63.06 26.1951C63.1706 25.9023 63.3593 25.6713 63.6261 25.5021C63.8995 25.3329 64.2216 25.2483 64.5925 25.2483H64.9244V25.834H64.5242C64.1012 25.834 63.7693 25.9706 63.5285 26.2439C63.2877 26.5108 63.1673 26.8719 63.1673 27.3275V30.5H62.5816ZM65.9871 30.5V25.3166H66.5728V30.5H65.9871ZM65.9871 24.3014V23.2276H66.5728V24.3014H65.9871ZM68.2773 30.5V25.3166H68.863V26.3611L68.7166 26.322C68.8337 25.9771 69.042 25.7038 69.3413 25.5021C69.6472 25.3003 70.0019 25.1995 70.4053 25.1995C70.7633 25.1995 71.0886 25.2808 71.3815 25.4435C71.6743 25.6062 71.9086 25.834 72.0843 26.1268C72.26 26.4131 72.3479 26.7418 72.3479 27.1127V30.5H71.7622V27.2787C71.7622 26.9663 71.7004 26.6995 71.5767 26.4782C71.4531 26.2505 71.2806 26.078 71.0594 25.9609C70.8446 25.8372 70.5973 25.7754 70.3175 25.7754C70.0246 25.7754 69.7676 25.8437 69.5463 25.9804C69.3251 26.117 69.1558 26.3058 69.0387 26.5466C68.9216 26.7873 68.863 27.0639 68.863 27.3763V30.5H68.2773ZM76.382 32.6475C76.0371 32.6475 75.7182 32.5922 75.4254 32.4816C75.1325 32.371 74.8787 32.2213 74.664 32.0326C74.4492 31.8438 74.28 31.6291 74.1564 31.3883L74.6835 31.1052C74.8267 31.3851 75.0414 31.6161 75.3278 31.7983C75.6206 31.9805 75.9688 32.0716 76.3723 32.0716C76.6976 32.0716 77.0003 32.0065 77.2801 31.8764C77.5599 31.7527 77.7877 31.5575 77.9634 31.2907C78.1456 31.0304 78.2367 30.7017 78.2367 30.3048V28.987L78.3441 29.1236C78.1619 29.5271 77.8853 29.846 77.5144 30.0803C77.1434 30.308 76.7302 30.4219 76.2746 30.4219C75.7931 30.4219 75.3603 30.3048 74.9763 30.0705C74.5924 29.8362 74.2898 29.5206 74.0685 29.1236C73.8538 28.7266 73.7464 28.2874 73.7464 27.8058C73.7464 27.3242 73.8538 26.8882 74.0685 26.4977C74.2898 26.1008 74.5891 25.7852 74.9666 25.5509C75.3505 25.3166 75.7866 25.1995 76.2746 25.1995C76.7302 25.1995 77.1402 25.3133 77.5046 25.5411C77.869 25.7624 78.1489 26.0617 78.3441 26.4392L78.2367 26.6246V25.3166H78.8224V30.3048C78.8224 30.7538 78.7183 31.154 78.51 31.5054C78.3018 31.8634 78.0122 32.1432 77.6413 32.3449C77.2768 32.5467 76.8571 32.6475 76.382 32.6475ZM76.2942 29.8362C76.6586 29.8362 76.984 29.7451 77.2703 29.5629C77.5632 29.3807 77.7942 29.1366 77.9634 28.8308C78.1326 28.5184 78.2172 28.1767 78.2172 27.8058C78.2172 27.4349 78.1326 27.0965 77.9634 26.7906C77.7942 26.4847 77.5632 26.2407 77.2703 26.0585C76.984 25.8763 76.6586 25.7852 76.2942 25.7852C75.9232 25.7852 75.5913 25.8763 75.2985 26.0585C75.0056 26.2407 74.7779 26.4847 74.6152 26.7906C74.4525 27.0965 74.3711 27.4349 74.3711 27.8058C74.3711 28.1767 74.4525 28.5184 74.6152 28.8308C74.7779 29.1366 75.0024 29.3807 75.2887 29.5629C75.5816 29.7451 75.9167 29.8362 76.2942 29.8362ZM82.2597 32.6475C82.1686 32.6475 82.0677 32.6378 81.9571 32.6183C81.853 32.6052 81.7521 32.5825 81.6545 32.5499V32.0033C81.7326 32.0228 81.8204 32.0391 81.9181 32.0521C82.0222 32.0651 82.1165 32.0716 82.2011 32.0716C82.52 32.0651 82.7706 31.987 82.9528 31.8373C83.135 31.6877 83.301 31.4404 83.4506 31.0955L83.8216 30.2267V30.7733L81.6252 25.3166H82.2695L84.1535 30.0217H83.9192L85.8129 25.3166H86.467L84.0461 31.2224C83.955 31.4371 83.8346 31.6551 83.6849 31.8764C83.5352 32.0976 83.3433 32.2799 83.109 32.423C82.8812 32.5727 82.5981 32.6475 82.2597 32.6475ZM89.8585 30.6171C89.3639 30.6171 88.9181 30.5 88.5212 30.2657C88.1242 30.0314 87.8086 29.7093 87.5743 29.2993C87.3465 28.8828 87.2326 28.4175 87.2326 27.9034C87.2326 27.3893 87.3465 26.9273 87.5743 26.5173C87.8086 26.1073 88.1209 25.7852 88.5114 25.5509C88.9084 25.3166 89.3574 25.1995 89.8585 25.1995C90.3531 25.1995 90.7989 25.3166 91.1958 25.5509C91.5928 25.7852 91.9052 26.1073 92.133 26.5173C92.3607 26.9208 92.4746 27.3828 92.4746 27.9034C92.4746 28.424 92.3575 28.8893 92.1232 29.2993C91.8889 29.7093 91.5733 30.0314 91.1763 30.2657C90.7859 30.5 90.3466 30.6171 89.8585 30.6171ZM89.8585 30.0412C90.2294 30.0412 90.5646 29.9501 90.8639 29.7679C91.1698 29.5792 91.4106 29.3221 91.5863 28.9967C91.762 28.6713 91.8499 28.3069 91.8499 27.9034C91.8499 27.4999 91.762 27.1388 91.5863 26.8199C91.4106 26.501 91.1731 26.2472 90.8737 26.0585C90.5744 25.8698 90.2359 25.7754 89.8585 25.7754C89.4811 25.7754 89.1394 25.8698 88.8335 26.0585C88.5342 26.2407 88.2966 26.4945 88.1209 26.8199C87.9452 27.1388 87.8574 27.4999 87.8574 27.9034C87.8574 28.3069 87.9452 28.6713 88.1209 28.9967C88.3032 29.3221 88.5439 29.5792 88.8433 29.7679C89.1427 29.9501 89.4811 30.0412 89.8585 30.0412ZM95.8148 30.6171C95.4634 30.6171 95.138 30.5358 94.8387 30.3731C94.5458 30.2104 94.3115 29.9826 94.1358 29.6898C93.9601 29.3904 93.8723 29.0358 93.8723 28.6258V25.3166H94.458V28.577C94.458 28.8828 94.5198 29.1464 94.6434 29.3677C94.7736 29.5824 94.946 29.7484 95.1608 29.8655C95.3821 29.9826 95.6294 30.0412 95.9027 30.0412C96.202 30.0412 96.4591 29.9729 96.6738 29.8362C96.8951 29.6995 97.0643 29.5108 97.1814 29.27C97.2986 29.0227 97.3572 28.7429 97.3572 28.4305V25.3166H97.9429V30.5H97.3572V29.4457L97.5036 29.4946C97.3864 29.833 97.1782 30.1063 96.8788 30.3145C96.5795 30.5163 96.2248 30.6171 95.8148 30.6171ZM99.6635 30.5V25.3166H100.249V26.283L100.142 26.1951C100.252 25.9023 100.441 25.6713 100.708 25.5021C100.981 25.3329 101.303 25.2483 101.674 25.2483H102.006V25.834H101.606C101.183 25.834 100.851 25.9706 100.61 26.2439C100.37 26.5108 100.249 26.8719 100.249 27.3275V30.5H99.6635ZM104.778 32.4523V25.3166H105.363V26.6246L105.266 26.4392C105.461 26.0617 105.741 25.7624 106.105 25.5411C106.476 25.3133 106.899 25.1995 107.374 25.1995C107.862 25.1995 108.298 25.3166 108.682 25.5509C109.066 25.7852 109.369 26.1073 109.59 26.5173C109.811 26.9273 109.922 27.3926 109.922 27.9132C109.922 28.4208 109.811 28.8796 109.59 29.2896C109.369 29.6995 109.066 30.0249 108.682 30.2657C108.298 30.5 107.862 30.6171 107.374 30.6171C106.899 30.6171 106.473 30.5033 106.095 30.2755C105.725 30.0412 105.448 29.7223 105.266 29.3188L105.363 29.1822V32.4523H104.778ZM107.355 30.0314C107.726 30.0314 108.058 29.9403 108.35 29.7581C108.643 29.5694 108.874 29.3156 109.043 28.9967C109.213 28.6713 109.297 28.3069 109.297 27.9034C109.297 27.4999 109.213 27.1388 109.043 26.8199C108.874 26.501 108.643 26.2505 108.35 26.0682C108.058 25.8795 107.726 25.7852 107.355 25.7852C106.984 25.7852 106.649 25.8795 106.349 26.0682C106.05 26.2505 105.812 26.501 105.637 26.8199C105.461 27.1388 105.373 27.4999 105.373 27.9034C105.373 28.3069 105.461 28.6713 105.637 28.9967C105.812 29.3156 106.047 29.5694 106.339 29.7581C106.639 29.9403 106.977 30.0314 107.355 30.0314ZM112.908 30.6171C112.583 30.6171 112.293 30.5553 112.039 30.4317C111.785 30.308 111.584 30.1356 111.434 29.9143C111.284 29.693 111.21 29.4392 111.21 29.1529C111.21 28.8991 111.265 28.6616 111.375 28.4403C111.486 28.219 111.665 28.0303 111.912 27.8741C112.16 27.7114 112.482 27.5976 112.879 27.5325L114.978 27.1811V27.7277L113.035 28.0498C112.592 28.1214 112.28 28.2548 112.098 28.4501C111.916 28.6453 111.825 28.8731 111.825 29.1334C111.825 29.4132 111.929 29.641 112.137 29.8167C112.352 29.9924 112.622 30.0803 112.947 30.0803C113.325 30.0803 113.653 29.9957 113.933 29.8265C114.213 29.6507 114.431 29.423 114.587 29.1431C114.743 28.8568 114.821 28.5444 114.821 28.206V26.9175C114.821 26.5726 114.698 26.2928 114.45 26.078C114.203 25.8632 113.881 25.7559 113.484 25.7559C113.159 25.7559 112.866 25.8372 112.605 25.9999C112.345 26.1626 112.147 26.3741 112.01 26.6344L111.483 26.3513C111.58 26.1431 111.73 25.9511 111.932 25.7754C112.134 25.5997 112.368 25.4598 112.635 25.3556C112.902 25.2515 113.185 25.1995 113.484 25.1995C113.861 25.1995 114.193 25.2743 114.48 25.424C114.773 25.5671 115 25.7689 115.163 26.0292C115.326 26.283 115.407 26.5791 115.407 26.9175V30.5H114.821V29.4165L114.89 29.4653C114.805 29.6735 114.665 29.8655 114.47 30.0412C114.275 30.2104 114.044 30.3503 113.777 30.461C113.517 30.5651 113.227 30.6171 112.908 30.6171ZM118.865 30.6171C118.383 30.6171 117.96 30.4967 117.596 30.256C117.232 30.0152 116.965 29.6865 116.796 29.27L117.303 29.0358C117.466 29.3546 117.684 29.6084 117.957 29.7972C118.23 29.9794 118.533 30.0705 118.865 30.0705C119.203 30.0705 119.486 29.9891 119.714 29.8265C119.949 29.6572 120.066 29.436 120.066 29.1627C120.066 28.9935 120.02 28.8503 119.929 28.7332C119.844 28.616 119.734 28.5217 119.597 28.4501C119.46 28.372 119.314 28.3134 119.158 28.2744L118.357 28.0498C117.908 27.9262 117.576 27.744 117.362 27.5032C117.153 27.2624 117.049 26.9793 117.049 26.6539C117.049 26.3611 117.124 26.1073 117.274 25.8925C117.424 25.6713 117.625 25.5021 117.879 25.3849C118.133 25.2613 118.413 25.1995 118.719 25.1995C119.148 25.1995 119.539 25.3101 119.89 25.5314C120.241 25.7526 120.489 26.052 120.632 26.4294L120.105 26.6735C119.968 26.3806 119.776 26.1528 119.529 25.9901C119.281 25.8209 119.008 25.7363 118.709 25.7363C118.396 25.7363 118.143 25.8209 117.947 25.9901C117.752 26.1528 117.655 26.3611 117.655 26.6149C117.655 26.7776 117.694 26.9142 117.772 27.0249C117.85 27.129 117.951 27.2169 118.074 27.2884C118.204 27.3535 118.338 27.4056 118.475 27.4446L119.343 27.6984C119.766 27.8156 120.092 28.001 120.319 28.2548C120.554 28.5086 120.671 28.808 120.671 29.1529C120.671 29.4327 120.593 29.6833 120.437 29.9045C120.28 30.1258 120.066 30.3015 119.792 30.4317C119.519 30.5553 119.21 30.6171 118.865 30.6171ZM123.92 30.6171C123.438 30.6171 123.015 30.4967 122.651 30.256C122.286 30.0152 122.019 29.6865 121.85 29.27L122.358 29.0358C122.52 29.3546 122.739 29.6084 123.012 29.7972C123.285 29.9794 123.588 30.0705 123.92 30.0705C124.258 30.0705 124.541 29.9891 124.769 29.8265C125.003 29.6572 125.12 29.436 125.12 29.1627C125.12 28.9935 125.075 28.8503 124.984 28.7332C124.899 28.616 124.788 28.5217 124.652 28.4501C124.515 28.372 124.369 28.3134 124.213 28.2744L123.412 28.0498C122.963 27.9262 122.631 27.744 122.416 27.5032C122.208 27.2624 122.104 26.9793 122.104 26.6539C122.104 26.3611 122.179 26.1073 122.329 25.8925C122.478 25.6713 122.68 25.5021 122.934 25.3849C123.188 25.2613 123.467 25.1995 123.773 25.1995C124.203 25.1995 124.593 25.3101 124.945 25.5314C125.296 25.7526 125.543 26.052 125.687 26.4294L125.159 26.6735C125.023 26.3806 124.831 26.1528 124.583 25.9901C124.336 25.8209 124.063 25.7363 123.763 25.7363C123.451 25.7363 123.197 25.8209 123.002 25.9901C122.807 26.1528 122.709 26.3611 122.709 26.6149C122.709 26.7776 122.748 26.9142 122.826 27.0249C122.904 27.129 123.005 27.2169 123.129 27.2884C123.259 27.3535 123.393 27.4056 123.529 27.4446L124.398 27.6984C124.821 27.8156 125.146 28.001 125.374 28.2548C125.608 28.5086 125.726 28.808 125.726 29.1529C125.726 29.4327 125.647 29.6833 125.491 29.9045C125.335 30.1258 125.12 30.3015 124.847 30.4317C124.574 30.5553 124.265 30.6171 123.92 30.6171ZM127.227 30.5V25.3166H127.813V30.5H127.227ZM127.227 24.3014V23.2276H127.813V24.3014H127.227ZM131.928 30.6171C131.434 30.6171 130.988 30.5 130.591 30.2657C130.194 30.0314 129.878 29.7093 129.644 29.2993C129.416 28.8828 129.302 28.4175 129.302 27.9034C129.302 27.3893 129.416 26.9273 129.644 26.5173C129.878 26.1073 130.191 25.7852 130.581 25.5509C130.978 25.3166 131.427 25.1995 131.928 25.1995C132.423 25.1995 132.869 25.3166 133.266 25.5509C133.663 25.7852 133.975 26.1073 134.203 26.5173C134.431 26.9208 134.544 27.3828 134.544 27.9034C134.544 28.424 134.427 28.8893 134.193 29.2993C133.959 29.7093 133.643 30.0314 133.246 30.2657C132.856 30.5 132.416 30.6171 131.928 30.6171ZM131.928 30.0412C132.299 30.0412 132.634 29.9501 132.934 29.7679C133.24 29.5792 133.48 29.3221 133.656 28.9967C133.832 28.6713 133.92 28.3069 133.92 27.9034C133.92 27.4999 133.832 27.1388 133.656 26.8199C133.48 26.501 133.243 26.2472 132.943 26.0585C132.644 25.8698 132.306 25.7754 131.928 25.7754C131.551 25.7754 131.209 25.8698 130.903 26.0585C130.604 26.2407 130.366 26.4945 130.191 26.8199C130.015 27.1388 129.927 27.4999 129.927 27.9034C129.927 28.3069 130.015 28.6713 130.191 28.9967C130.373 29.3221 130.614 29.5792 130.913 29.7679C131.212 29.9501 131.551 30.0412 131.928 30.0412ZM136.049 30.5V25.3166H136.635V26.3611L136.489 26.322C136.606 25.9771 136.814 25.7038 137.113 25.5021C137.419 25.3003 137.774 25.1995 138.177 25.1995C138.535 25.1995 138.861 25.2808 139.154 25.4435C139.446 25.6062 139.681 25.834 139.856 26.1268C140.032 26.4131 140.12 26.7418 140.12 27.1127V30.5H139.534V27.2787C139.534 26.9663 139.472 26.6995 139.349 26.4782C139.225 26.2505 139.053 26.078 138.831 25.9609C138.617 25.8372 138.369 25.7754 138.09 25.7754C137.797 25.7754 137.54 25.8437 137.318 25.9804C137.097 26.117 136.928 26.3058 136.811 26.5466C136.694 26.7873 136.635 27.0639 136.635 27.3763V30.5H136.049Z" fill="#2E2E2E"/>
<defs>
<linearGradient id="paint0_linear_2554_19110" x1="21.1759" y1="7.13215" x2="30.0739" y2="7.13215" gradientUnits="userSpaceOnUse">
<stop stop-color="#2B8AD6"/>
<stop offset="1" stop-color="#99CCFF"/>
</linearGradient>
<linearGradient id="paint1_linear_2554_19110" x1="-0.00026558" y1="7.03307" x2="20.6568" y2="7.03307" gradientUnits="userSpaceOnUse">
<stop stop-color="#156DD6"/>
<stop offset="1" stop-color="#99CCFF"/>
</linearGradient>
<linearGradient id="paint2_linear_2554_19110" x1="-0.185098" y1="4.94629" x2="14.2729" y2="4.94629" gradientUnits="userSpaceOnUse">
<stop stop-color="#156DD6"/>
<stop offset="1" stop-color="#99CCFF"/>
</linearGradient>
<linearGradient id="paint3_linear_2554_19110" x1="9.64311" y1="14.9143" x2="29.0018" y2="16.5567" gradientUnits="userSpaceOnUse">
<stop stop-color="#CDDD53"/>
<stop offset="0.5399" stop-color="#83CE5B"/>
<stop offset="1" stop-color="#48C262"/>
</linearGradient>
<linearGradient id="paint4_linear_2554_19110" x1="13.795" y1="24.6132" x2="35.7544" y2="13.6268" gradientUnits="userSpaceOnUse">
<stop stop-color="#CDDD53"/>
<stop offset="0.2613" stop-color="#A2D458"/>
<stop offset="0.5133" stop-color="#7DCD5C"/>
<stop offset="0.6122" stop-color="#70CA5E"/>
<stop offset="0.8586" stop-color="#53C461"/>
<stop offset="1" stop-color="#48C262"/>
</linearGradient>
</defs>
</svg>
